<?xml version="1.0" standalone="no"?>
<!DOCTYPE svg PUBLIC "-//W3C//DTD SVG 20010904//EN"
 "http://www.w3.org/TR/2001/REC-SVG-20010904/DTD/svg10.dtd">
<svg version="1.0" xmlns="http://www.w3.org/2000/svg"
 width="1280.000000pt" height="1280.000000pt" viewBox="0 0 1280.000000 1280.000000"
 preserveAspectRatio="xMidYMid meet">
<metadata>
Created by potrace 1.15, written by Peter Selinger 2001-2017
</metadata>
<g transform="translate(0.000000,1280.000000) scale(0.100000,-0.100000)"
fill="#000000" stroke="none">
<path d="M5265 11919 c-671 -12 -1014 -33 -1062 -65 -29 -18 -30 -59 -3 -76
30 -19 29 -123 -2 -147 -25 -21 -19 -66 11 -76 17 -5 19 -22 25 -223 4 -119 9
-232 12 -250 3 -23 2 -32 -5 -27 -6 3 -11 13 -11 22 0 37 -81 181 -135 240
-214 236 -670 323 -976 186 -349 -157 -606 -558 -648 -1012 -35 -368 63 -829
247 -1171 192 -357 650 -850 1057 -1137 122 -86 264 -170 495 -293 247 -131
328 -190 384 -280 38 -60 39 -77 2 -33 -54 62 -112 87 -194 81 -83 -6 -153
-40 -209 -100 -50 -55 -68 -104 -67 -188 1 -119 69 -221 182 -273 39 -18 66
-21 157 -22 97 0 116 3 155 24 104 54 141 115 149 246 l6 90 39 -100 c22 -55
83 -199 136 -320 136 -310 136 -308 116 -336 -22 -32 -20 -54 6 -79 21 -19 21
-23 9 -92 -29 -176 -34 -215 -27 -242 12 -50 85 -111 221 -187 216 -119 265
-165 265 -246 0 -37 -2 -41 -37 -51 -93 -29 -143 -85 -143 -162 1 -96 58 -175
319 -437 148 -148 197 -204 216 -245 26 -58 50 -183 60 -319 l7 -86 -87 -12
c-235 -33 -346 -104 -422 -269 -20 -43 -37 -79 -38 -80 -2 -2 -46 -12 -98 -22
-174 -34 -246 -61 -307 -116 -49 -45 -83 -108 -106 -198 -12 -49 -21 -66 -33
-66 -32 0 -229 -59 -284 -85 -193 -92 -251 -274 -292 -920 -22 -358 -39 -477
-76 -541 -16 -28 -35 -56 -42 -61 -6 -5 -61 -27 -122 -48 -284 -98 -410 -208
-482 -419 -38 -111 -38 -203 -1 -267 163 -277 1173 -479 2540 -508 1175 -25
2226 84 2768 286 286 107 374 222 321 425 -63 242 -203 371 -519 478 l-102 35
-34 65 c-41 79 -49 140 -71 515 -18 302 -38 482 -65 605 -59 264 -130 334
-417 409 l-106 27 -21 75 c-59 199 -123 244 -444 311 l-63 13 -29 67 c-35 83
-74 138 -131 183 -69 53 -148 78 -343 110 l-38 6 6 92 c9 121 22 197 48 277
20 63 28 72 232 280 282 286 319 337 320 435 0 70 -29 109 -111 148 -36 16
-67 36 -70 44 -10 27 18 93 55 129 37 36 79 62 268 168 159 88 188 134 165
265 -37 205 -36 199 -13 224 26 28 28 54 6 78 -15 17 -14 23 10 84 14 36 56
132 93 213 36 81 94 213 128 294 l62 148 6 -75 c13 -177 134 -274 326 -263
136 8 245 75 291 181 84 190 -39 390 -250 405 -55 4 -74 1 -110 -18 -25 -13
-57 -36 -72 -52 -41 -44 -34 -18 12 43 57 77 140 135 355 250 352 188 475 266
685 434 264 211 587 554 771 820 246 354 395 900 359 1313 -50 562 -401 1015
-840 1085 -86 14 -124 15 -210 7 -326 -31 -553 -164 -665 -391 -26 -54 -44
-81 -41 -64 3 17 8 123 12 237 6 204 7 208 30 223 30 19 32 60 4 77 -28 18
-29 122 -1 137 54 29 26 85 -51 100 -265 53 -2075 84 -3423 60z m-1673 -704
c268 -55 508 -317 568 -619 21 -105 36 -286 23 -286 -4 1 -17 15 -28 32 -59
95 -232 141 -332 90 -152 -78 -187 -301 -68 -439 90 -105 272 -121 391 -35 56
41 101 131 123 245 l18 92 7 -95 c13 -176 36 -383 72 -650 103 -780 182 -1205
299 -1605 26 -88 49 -169 52 -180 3 -11 -9 2 -27 30 -39 59 -142 164 -225 227
-33 25 -161 113 -285 196 -354 237 -556 410 -754 647 -173 206 -274 361 -386
590 -160 326 -219 555 -207 810 11 263 130 563 306 772 143 169 264 217 453
178z m5973 -33 c181 -69 395 -392 471 -711 78 -326 20 -641 -196 -1068 -182
-359 -461 -699 -785 -957 -60 -48 -202 -149 -315 -224 -309 -205 -401 -278
-487 -388 -25 -33 -43 -51 -40 -42 22 62 111 389 141 518 93 407 229 1274 273
1743 l17 189 23 -93 c43 -175 134 -257 285 -259 142 -1 240 73 275 207 51 193
-77 361 -259 340 -71 -9 -150 -50 -194 -100 l-36 -42 7 90 c21 296 104 483
290 653 96 88 216 144 355 166 40 6 131 -5 175 -22z m-5586 -838 c49 -10 81
-46 81 -93 0 -43 10 -57 65 -91 19 -12 35 -24 35 -27 0 -20 -51 -69 -89 -86
-96 -42 -199 -21 -248 53 -39 57 -47 104 -25 153 22 49 38 64 89 83 45 15 51
16 92 8z m5081 -34 c89 -45 100 -156 23 -240 -71 -79 -196 -79 -275 0 -21 21
-38 42 -38 46 0 5 20 21 44 35 40 24 44 32 51 75 3 27 12 57 19 66 30 41 115
49 176 18z m-4519 -2776 c35 -17 87 -78 95 -110 10 -39 -12 -99 -47 -128 -52
-44 -143 -30 -179 28 -8 11 -14 52 -15 91 -1 39 -5 80 -9 91 -5 18 0 24 31 37
40 17 79 14 124 -9z m3972 4 c13 -7 16 -15 11 -26 -5 -9 -8 -52 -9 -94 0 -61
-5 -81 -20 -98 -84 -93 -215 -46 -215 77 0 54 38 105 102 137 53 27 86 28 131
4z"/>
</g>
</svg>
