<?xml version="1.0" standalone="no"?>
<!DOCTYPE svg PUBLIC "-//W3C//DTD SVG 20010904//EN"
 "http://www.w3.org/TR/2001/REC-SVG-20010904/DTD/svg10.dtd">
<svg version="1.0" xmlns="http://www.w3.org/2000/svg"
 width="1280.000000pt" height="1269.000000pt" viewBox="0 0 1280.000000 1269.000000"
 preserveAspectRatio="xMidYMid meet">
<metadata>
Created by potrace 1.15, written by Peter Selinger 2001-2017
</metadata>
<g transform="translate(0.000000,1269.000000) scale(0.100000,-0.100000)"
fill="#000000" stroke="none">
<path d="M6348 11646 c-75 -151 -124 -236 -135 -239 -10 -3 -124 -20 -253 -38
-129 -17 -238 -35 -243 -39 -4 -3 77 -89 179 -190 l186 -184 -42 -241 c-23
-132 -44 -248 -46 -257 -3 -10 -2 -18 3 -18 4 0 112 54 238 120 l230 119 110
-58 c61 -32 167 -88 236 -125 l126 -66 -44 262 -45 263 193 188 c107 103 190
187 186 187 -24 0 -495 72 -509 78 -10 4 -67 108 -132 240 -63 127 -116 232
-118 232 -2 0 -56 -105 -120 -234z"/>
<path d="M8424 11269 c-10 -12 -72 -71 -136 -131 l-118 -110 -172 36 c-95 20
-178 36 -185 36 -7 0 24 -73 69 -162 44 -90 81 -167 81 -173 0 -5 -41 -82 -91
-170 -50 -87 -90 -160 -89 -161 1 -1 76 9 167 22 91 13 175 23 187 24 16 0 57
-38 144 -135 68 -74 126 -132 129 -127 4 4 19 79 34 167 15 88 30 167 32 176
3 9 72 46 167 89 89 40 166 76 170 80 4 4 -61 44 -145 88 -84 45 -159 86 -165
90 -8 5 -21 79 -34 192 -11 102 -22 186 -23 188 -2 1 -11 -7 -22 -19z"/>
<path d="M4376 11237 c-3 -23 -8 -105 -12 -182 -4 -77 -11 -145 -16 -152 -5
-6 -76 -51 -158 -100 -82 -48 -150 -91 -150 -95 0 -3 77 -37 172 -75 l172 -68
36 -155 c20 -85 39 -168 43 -183 8 -28 12 -24 128 117 66 80 123 146 127 146
4 0 79 -7 167 -15 88 -8 170 -15 182 -15 20 0 11 18 -77 155 -55 85 -100 159
-100 164 0 6 32 85 71 177 38 91 69 167 67 169 -2 1 -84 -19 -183 -45 l-179
-48 -142 124 -142 123 -6 -42z"/>
<path d="M3410 9701 c-313 -141 -531 -280 -677 -434 -145 -153 -223 -304 -253
-489 -12 -75 -11 -291 2 -303 9 -9 154 11 228 31 330 90 540 311 678 715 60
174 137 519 116 519 -5 0 -47 -18 -94 -39z"/>
<path d="M9375 9699 c3 -24 22 -114 42 -199 131 -576 342 -865 718 -983 87
-27 248 -53 264 -42 17 10 14 253 -5 343 -17 84 -64 202 -116 290 -53 91 -245
277 -373 361 -98 65 -453 249 -514 266 -22 7 -23 6 -16 -36z"/>
<path d="M1931 9278 c-212 -430 -271 -727 -200 -1006 36 -142 135 -317 233
-411 33 -32 36 -33 59 -18 37 24 129 133 185 219 166 255 175 581 27 968 -43
112 -195 430 -206 430 -4 0 -48 -82 -98 -182z"/>
<path d="M10772 9313 c-38 -82 -82 -177 -97 -213 -159 -378 -176 -685 -52
-942 59 -124 112 -195 221 -298 l36 -34 46 44 c25 25 72 85 105 134 186 281
197 607 34 1023 -48 122 -201 433 -214 433 -4 0 -40 -66 -79 -147z"/>
<path d="M6481 8953 c-23 -50 -213 -338 -299 -453 -270 -359 -562 -653 -864
-869 l-107 -76 0 -168 -1 -169 48 28 c40 23 93 58 186 124 216 153 469 372
621 539 79 88 116 121 130 119 20 -3 20 -11 20 -1878 0 -1778 -1 -1879 -18
-1953 -38 -160 -124 -280 -240 -332 -47 -21 -77 -30 -169 -50 l-28 -5 0 -130
0 -130 790 0 791 0 -3 132 -3 131 -64 13 c-195 40 -306 152 -363 367 l-23 82
-2 2353 -3 2352 -194 0 -193 0 -12 -27z"/>
<path d="M3150 8506 c-337 -115 -543 -226 -708 -381 -182 -172 -273 -368 -289
-624 l-6 -104 119 6 c422 23 695 237 896 705 39 91 158 429 158 448 0 8 -17 3
-170 -50z"/>
<path d="M9597 8448 c80 -259 170 -463 269 -616 74 -114 207 -246 310 -306
135 -79 318 -126 493 -126 l64 0 -6 108 c-13 248 -102 439 -286 615 -183 175
-447 307 -863 433 -14 4 -11 -13 19 -108z"/>
<path d="M1342 8144 c-35 -114 -79 -293 -97 -394 -26 -142 -31 -412 -11 -524
34 -181 111 -337 228 -462 57 -61 186 -164 204 -164 13 0 108 153 139 223 136
309 84 639 -160 1013 -50 77 -183 256 -258 348 l-24 30 -21 -70z"/>
<path d="M11420 8090 c-223 -285 -346 -510 -396 -726 -29 -123 -24 -303 10
-418 30 -99 109 -262 154 -315 l28 -34 49 33 c138 95 263 247 325 396 72 174
93 424 55 669 -17 113 -92 424 -116 483 l-14 33 -95 -121z"/>
<path d="M2544 7324 c-502 -335 -726 -652 -726 -1029 0 -103 23 -264 42 -296
7 -10 32 -5 124 25 458 151 667 516 693 1214 3 94 4 172 1 172 -3 0 -63 -39
-134 -86z"/>
<path d="M10200 7332 c0 -44 5 -137 10 -208 44 -558 207 -872 540 -1039 109
-55 259 -102 270 -85 4 7 16 49 26 94 26 116 24 304 -5 411 -77 289 -299 548
-696 815 -158 106 -145 105 -145 12z"/>
<path d="M874 6743 c25 -352 86 -607 192 -813 95 -183 217 -308 382 -393 111
-58 261 -105 272 -87 4 7 16 49 26 94 27 117 25 323 -4 429 -69 253 -263 481
-597 704 -107 70 -260 163 -270 163 -4 0 -5 -44 -1 -97z"/>
<path d="M11975 6826 c-11 -7 -73 -46 -139 -86 -233 -143 -430 -308 -537 -450
-65 -85 -134 -225 -160 -325 -29 -108 -31 -285 -5 -411 10 -50 22 -97 26 -104
14 -22 220 50 322 112 107 66 237 197 300 303 97 162 160 362 198 623 23 165
36 352 24 351 -5 0 -18 -6 -29 -13z"/>
<path d="M2519 6223 c-483 -497 -619 -941 -417 -1365 23 -49 46 -88 52 -88 5
0 42 19 80 42 266 157 410 360 461 652 17 102 20 326 5 461 -12 106 -59 374
-69 393 -5 9 -41 -22 -112 -95z"/>
<path d="M10241 6283 c-65 -289 -88 -614 -56 -808 43 -264 171 -470 383 -614
83 -56 163 -94 174 -83 16 16 85 185 104 257 28 103 25 331 -4 439 -63 228
-196 441 -451 721 -67 74 -126 135 -131 135 -4 0 -13 -21 -19 -47z"/>
<path d="M720 5524 c0 -3 35 -74 77 -157 142 -278 304 -494 467 -624 91 -72
247 -152 346 -178 77 -20 282 -30 360 -18 54 8 55 9 58 43 5 59 -44 228 -97
335 -157 317 -455 486 -1026 580 -156 26 -185 29 -185 19z"/>
<path d="M11969 5505 c-508 -88 -792 -229 -961 -477 -82 -121 -145 -297 -151
-418 l-2 -54 55 -9 c77 -12 293 -1 365 18 79 22 208 82 284 134 197 134 385
381 570 749 l41 82 -32 -1 c-18 0 -94 -11 -169 -24z"/>
<path d="M2777 5112 c-166 -216 -288 -428 -350 -607 -49 -142 -62 -222 -61
-360 2 -139 24 -237 80 -355 38 -81 105 -190 116 -190 14 0 165 120 215 172
250 258 308 605 182 1102 -29 117 -97 336 -103 336 -2 0 -38 -44 -79 -98z"/>
<path d="M9984 5093 c-98 -313 -129 -497 -121 -718 6 -174 20 -240 82 -370 69
-147 161 -254 312 -362 75 -54 65 -58 133 57 143 243 166 505 70 791 -35 104
-117 270 -194 392 -57 91 -219 311 -236 322 -5 3 -26 -47 -46 -112z"/>
<path d="M3267 4353 c-130 -269 -193 -464 -217 -672 -34 -286 50 -538 247
-752 l58 -62 67 73 c297 316 335 681 126 1180 -44 104 -189 390 -199 390 -3 0
-40 -71 -82 -157z"/>
<path d="M9501 4459 c-17 -30 -60 -112 -95 -184 -291 -593 -273 -984 61 -1345
l56 -61 44 43 c98 95 189 243 232 375 66 207 49 462 -50 751 -40 114 -170 406
-201 451 l-16 23 -31 -53z"/>
<path d="M946 4444 c133 -203 246 -347 369 -469 114 -113 215 -187 337 -245
131 -63 221 -83 373 -84 119 0 169 6 277 35 l37 9 -20 72 c-62 225 -197 416
-368 526 -205 131 -473 196 -855 209 l-188 6 38 -59z"/>
<path d="M11650 4493 c-106 -8 -277 -35 -371 -59 -306 -77 -519 -235 -638
-473 -40 -80 -91 -220 -91 -252 0 -23 66 -43 195 -60 359 -46 695 132 1008
536 57 74 179 248 211 303 6 9 -23 12 -131 10 -76 -1 -158 -3 -183 -5z"/>
<path d="M3896 3852 c-2 -4 -14 -84 -26 -177 -28 -214 -30 -474 -6 -620 49
-293 179 -507 396 -655 51 -34 152 -90 164 -90 21 0 107 230 126 336 16 88 8
277 -14 358 -52 187 -150 350 -340 565 -100 112 -292 295 -300 283z"/>
<path d="M8817 3703 c-235 -237 -354 -396 -428 -574 -55 -134 -63 -181 -63
-344 1 -132 4 -160 27 -236 29 -95 91 -239 104 -239 17 0 158 83 212 124 325
251 426 648 334 1309 -9 64 -19 117 -22 117 -4 0 -77 -71 -164 -157z"/>
<path d="M1900 3519 c-136 -12 -390 -51 -390 -59 0 -18 309 -305 405 -378 321
-240 610 -317 909 -241 70 18 236 85 236 96 0 12 -69 137 -106 194 -53 80
-189 212 -267 258 -197 116 -464 161 -787 130z"/>
<path d="M10630 3523 c-160 -17 -319 -66 -433 -134 -132 -79 -267 -229 -346
-386 -17 -34 -31 -64 -31 -66 0 -11 166 -78 237 -96 387 -99 761 57 1203 503
62 63 112 117 110 119 -7 7 -280 45 -399 57 -98 10 -266 11 -341 3z"/>
<path d="M4675 3019 c4 -13 32 -80 62 -149 217 -501 483 -785 814 -869 92 -24
238 -36 314 -26 l57 7 -7 61 c-46 445 -285 716 -776 880 -97 33 -344 97 -433
113 -37 6 -38 6 -31 -17z"/>
<path d="M8033 3005 c-184 -44 -394 -114 -508 -170 -346 -170 -524 -421 -559
-792 l-6 -61 66 -7 c143 -16 320 17 464 86 268 128 475 389 671 847 27 63 49
118 49 123 0 14 -24 10 -177 -26z"/>
<path d="M2966 2734 c-144 -22 -449 -112 -606 -178 l-31 -12 93 -66 c381 -268
699 -389 988 -375 181 9 333 63 487 173 l63 45 -22 32 c-49 69 -197 211 -268
258 -186 122 -433 165 -704 123z"/>
<path d="M9570 2743 c-195 -29 -353 -107 -493 -241 -70 -68 -147 -161 -147
-179 0 -16 111 -90 202 -133 125 -60 205 -80 343 -87 191 -9 358 31 580 136
199 95 512 296 484 311 -8 5 -88 33 -178 64 -288 99 -475 137 -661 135 -58 -1
-116 -3 -130 -6z"/>
<path d="M4220 2179 c-206 -31 -490 -171 -775 -381 l-110 -81 115 -39 c155
-53 352 -103 485 -123 163 -26 398 -17 518 19 149 44 255 105 366 210 66 63
141 151 141 167 0 15 -143 111 -225 150 -119 56 -213 79 -340 84 -60 2 -139
-1 -175 -6z"/>
<path d="M8350 2171 c-47 -10 -119 -33 -162 -50 -71 -30 -249 -139 -263 -161
-9 -15 52 -95 132 -171 178 -172 383 -249 663 -249 150 0 223 9 385 45 116 26
435 124 435 134 0 3 -49 40 -108 82 -463 330 -771 435 -1082 370z"/>
<path d="M6340 1958 c-81 -43 -128 -140 -113 -232 9 -56 60 -126 113 -153 66
-35 163 -29 222 13 54 37 88 98 95 166 6 70 -33 149 -95 193 -61 42 -157 47
-222 13z"/>
<path d="M5335 1783 c-230 -49 -490 -204 -794 -472 l-73 -65 36 -12 c66 -23
309 -73 436 -90 172 -22 420 -15 540 16 105 27 232 86 314 144 116 82 280 281
260 314 -27 42 -247 142 -366 166 -96 20 -259 19 -353 -1z"/>
<path d="M7211 1790 c-112 -24 -350 -127 -382 -167 -14 -17 19 -74 98 -168
145 -172 347 -282 577 -314 110 -16 305 -14 443 4 173 23 464 88 462 104 0 3
-45 44 -100 91 -279 237 -485 363 -699 427 -69 20 -111 26 -220 29 -74 2 -155
-1 -179 -6z"/>
</g>
</svg>
