<?xml version="1.0" standalone="no"?>
<!DOCTYPE svg PUBLIC "-//W3C//DTD SVG 20010904//EN"
 "http://www.w3.org/TR/2001/REC-SVG-20010904/DTD/svg10.dtd">
<svg version="1.0" xmlns="http://www.w3.org/2000/svg"
 width="924.000000pt" height="1280.000000pt" viewBox="0 0 924.000000 1280.000000"
 preserveAspectRatio="xMidYMid meet">
<metadata>
Created by potrace 1.15, written by Peter Selinger 2001-2017
</metadata>
<g transform="translate(0.000000,1280.000000) scale(0.100000,-0.100000)"
fill="#000000" stroke="none">
<path d="M3414 12793 c-12 -2 -31 -14 -42 -26 -36 -38 -924 -1649 -914 -1659
7 -7 372 -181 1342 -638 124 -58 168 -75 176 -66 6 6 221 358 478 783 347 576
466 780 466 803 0 134 -290 362 -735 580 -360 175 -624 252 -771 223z"/>
<path d="M5241 11953 c-28 -24 -1012 -1676 -1003 -1685 4 -4 210 -113 457
-242 334 -174 463 -246 502 -281 167 -149 185 -469 58 -994 -20 -79 -34 -146
-32 -147 2 -2 156 218 342 489 187 270 544 789 794 1152 359 521 456 668 459
697 7 63 -31 121 -168 258 -69 69 -170 160 -225 201 -498 377 -1072 645 -1184
552z"/>
<path d="M1975 10938 c-40 -14 -94 -55 -132 -98 -17 -19 -131 -190 -253 -380
-123 -190 -507 -784 -853 -1320 -347 -536 -648 -1009 -668 -1050 -87 -172 -90
-310 -10 -468 33 -65 -2 -15 1591 -2297 796 -1141 1195 -1720 1197 -1740 2
-16 -23 -210 -56 -430 -61 -402 -152 -1015 -301 -2012 -44 -296 -101 -672
-125 -836 -25 -164 -45 -300 -45 -302 0 -3 1112 -5 2470 -5 l2470 0 0 1534 0
1535 109 223 c60 123 247 502 416 843 686 1383 878 1774 910 1856 44 110 80
247 99 379 20 135 38 496 34 672 l-3 137 -720 -745 c-396 -409 -761 -788 -811
-841 l-91 -96 -609 313 c-335 172 -644 331 -686 353 -43 22 -80 39 -82 36 -3
-3 -95 -486 -206 -1074 -222 -1187 -211 -1128 -215 -1123 -2 2 -18 66 -35 143
-72 315 -194 715 -310 1020 -428 1121 -1114 1959 -2041 2493 -117 67 -392 207
-479 243 -30 12 -58 25 -63 29 -12 10 417 825 434 823 8 -1 73 -28 144 -61
260 -120 464 -181 690 -208 454 -55 874 106 1135 434 188 237 274 542 177 630
-12 10 -382 192 -822 402 -440 211 -1070 512 -1400 670 -330 158 -631 297
-669 309 -73 23 -143 26 -191 9z m2525 -7755 c249 -107 461 -175 675 -215 104
-19 152 -22 355 -22 244 0 345 10 605 58 69 12 125 22 125 20 0 -1 -706 -506
-761 -544 -4 -3 -48 -246 -98 -540 -50 -294 -115 -681 -146 -860 -30 -179 -67
-397 -81 -485 -15 -88 -31 -164 -36 -169 -4 -6 -8 19 -8 55 0 36 -20 513 -45
1060 l-45 994 -373 367 c-413 408 -396 379 -167 281z"/>
<path d="M7012 10614 c-7 -3 -431 -577 -942 -1274 -743 -1013 -930 -1275 -930
-1298 0 -166 887 -970 1070 -972 22 0 183 175 965 1042 517 573 982 1088 1033
1145 89 100 92 105 92 151 0 113 -139 319 -390 576 -276 283 -553 504 -745
596 -61 29 -129 44 -153 34z"/>
<path d="M8339 8998 c-10 -7 -445 -485 -968 -1062 -1072 -1181 -978 -1060
-916 -1182 83 -164 337 -444 546 -602 64 -48 161 -95 188 -90 16 3 499 432
1743 1550 200 180 300 277 304 294 33 129 -251 578 -561 889 -167 167 -289
241 -336 203z"/>
</g>
</svg>
