<?xml version="1.0" standalone="no"?>
<!DOCTYPE svg PUBLIC "-//W3C//DTD SVG 20010904//EN"
 "http://www.w3.org/TR/2001/REC-SVG-20010904/DTD/svg10.dtd">
<svg version="1.0" xmlns="http://www.w3.org/2000/svg"
 width="953.000000pt" height="1280.000000pt" viewBox="0 0 953.000000 1280.000000"
 preserveAspectRatio="xMidYMid meet">
<metadata>
Created by potrace 1.15, written by Peter Selinger 2001-2017
</metadata>
<g transform="translate(0.000000,1280.000000) scale(0.100000,-0.100000)"
fill="#000000" stroke="none">
<path d="M4600 12314 c-135 -262 -250 -483 -256 -491 -8 -12 -78 65 -370 410
-257 304 -361 420 -365 408 -3 -9 -57 -253 -120 -543 -63 -291 -117 -528 -121
-528 -4 0 -211 142 -460 315 -249 173 -454 313 -455 311 -2 -1 9 -249 23 -550
15 -300 24 -549 21 -553 -4 -3 -239 78 -524 180 -285 102 -519 184 -521 183
-1 -2 72 -237 163 -523 91 -286 165 -524 165 -530 0 -6 -22 -8 -57 -5 -32 3
-280 23 -551 46 -270 23 -492 38 -492 34 0 -4 110 -179 245 -389 135 -210 243
-384 240 -387 -4 -4 -851 -117 -915 -122 -3 0 173 -178 390 -395 243 -243 391
-398 385 -403 -9 -8 -233 -101 -830 -344 -94 -38 -174 -73 -178 -77 -5 -5 206
-133 467 -286 262 -152 476 -280 476 -283 0 -4 -198 -157 -440 -341 -242 -184
-438 -336 -436 -338 2 -2 241 -69 531 -148 290 -79 530 -147 533 -149 3 -3 0
-11 -5 -18 -6 -7 -159 -205 -340 -439 l-330 -426 554 -5 c304 -3 556 -7 558
-10 4 -4 -81 -210 -345 -838 -43 -102 -77 -186 -76 -187 2 -3 715 183 828 215
41 12 68 16 68 9 0 -8 -150 -803 -166 -880 -6 -27 6 -22 305 127 264 132 309
152 301 132 -48 -127 -1501 -4339 -1497 -4342 2 -2 392 153 867 346 l863 351
638 -425 638 -425 6 32 c3 18 86 823 185 1789 l180 1757 207 316 c113 173 210
314 214 313 4 -2 98 -135 208 -296 l201 -293 85 -832 c47 -458 131 -1268 185
-1802 55 -533 101 -973 103 -977 1 -3 289 185 640 418 l638 424 392 -159 c216
-87 605 -245 865 -351 260 -106 474 -191 476 -189 2 2 -318 932 -711 2067
-393 1135 -713 2065 -711 2068 3 2 78 -36 169 -85 90 -50 164 -89 165 -88 1 1
-36 245 -82 542 -46 297 -83 545 -81 551 1 8 81 -7 237 -46 129 -32 366 -90
527 -129 160 -39 299 -74 307 -77 14 -5 14 0 -3 37 -10 24 -111 255 -225 513
-114 258 -205 470 -203 472 4 4 817 24 985 24 67 0 122 3 122 8 0 4 -155 201
-344 437 -190 237 -341 433 -338 436 4 3 230 70 502 149 272 79 510 148 528
154 l33 12 -313 229 c-172 126 -375 275 -450 331 l-137 101 475 288 c261 158
472 291 467 296 -4 4 -195 80 -423 169 -228 89 -418 164 -422 166 -4 3 144
147 329 321 277 262 333 318 317 324 -10 4 -134 26 -274 48 -426 68 -803 130
-805 133 -2 3 274 452 519 846 64 101 64 102 38 102 -15 0 -157 -13 -317 -29
-597 -60 -755 -74 -761 -69 -3 3 65 241 151 528 87 286 155 524 152 527 -3 3
-237 -82 -519 -189 -382 -144 -514 -190 -516 -180 -2 8 4 257 13 554 9 297 15
541 13 543 -1 2 -205 -143 -453 -321 -378 -273 -451 -322 -457 -307 -4 10 -62
252 -129 538 -67 286 -123 522 -126 525 -2 2 -8 -2 -13 -10 -5 -8 -141 -200
-302 -427 -168 -238 -295 -407 -299 -401 -4 6 -90 224 -191 485 -100 260 -185
473 -188 473 -3 0 -115 -214 -250 -476z"/>
</g>
</svg>
